<svg width="128" height="128" viewBox="0 0 128 128" fill="none" xmlns="http://www.w3.org/2000/svg">
  <defs>
    <linearGradient id="tile" x1="0" y1="0" x2="0" y2="1">
      <stop offset="0" stop-color="#54585f"/>
      <stop offset="0.5" stop-color="#26282c"/>
      <stop offset="1" stop-color="#0a0b0d"/>
    </linearGradient>
    <linearGradient id="sheen" x1="0" y1="0" x2="0" y2="1">
      <stop offset="0" stop-color="#ffffff" stop-opacity="0.4"/>
      <stop offset="0.5" stop-color="#ffffff" stop-opacity="0"/>
    </linearGradient>
  </defs>
  <rect width="128" height="128" rx="28" fill="url(#tile)"/>
  <rect x="2" y="2" width="124" height="124" rx="26" fill="none" stroke="url(#sheen)" stroke-width="2.5"/>
  <svg x="26" y="26" width="76" height="76" viewBox="0 0 100 100">
    <path fill="#ffffff" stroke="#ffffff" stroke-width="2" stroke-linejoin="round" d="M50 27 A11 11 0 1 0 50 49 A11 11 0 1 0 50 27 Z M53 48 C67 45 81 42 91 33 C86 46 75 55 61 59 C57 60 54 55 53 48 Z M47 48 C33 45 19 42 9 33 C14 46 25 55 39 59 C43 60 46 55 47 48 Z M50 54 L52 82 L50 90 L48 82 Z"/>
  </svg>
</svg>
