<svg width="128" height="128" viewBox="0 0 128 128" fill="none" xmlns="http://www.w3.org/2000/svg">
  <defs>
    <linearGradient id="tile" x1="0" y1="0" x2="0" y2="1">
      <stop offset="0" stop-color="#54585f"/>
      <stop offset="0.5" stop-color="#26282c"/>
      <stop offset="1" stop-color="#0a0b0d"/>
    </linearGradient>
    <linearGradient id="sheen" x1="0" y1="0" x2="0" y2="1">
      <stop offset="0" stop-color="#ffffff" stop-opacity="0.4"/>
      <stop offset="0.5" stop-color="#ffffff" stop-opacity="0"/>
    </linearGradient>
  </defs>
  <rect width="128" height="128" rx="28" fill="url(#tile)"/>
  <rect x="2" y="2" width="124" height="124" rx="26" fill="none" stroke="url(#sheen)" stroke-width="2.5"/>
  <svg x="26" y="26" width="76" height="76" viewBox="0 0 100 100">
    <path fill="#ffffff" stroke="#ffffff" stroke-width="2" stroke-linejoin="round" d="M50 10 L51.6 50 L50 92 L48.4 50 Z M50 74 L70 60 L50 80 Z M50 64 L78 49 L50 70 Z M50 55 L74 40 L50 61 Z M50 46 L66 33 L50 52 Z M50 38 L58 29 L50 44 Z M50 74 L30 60 L50 80 Z M50 64 L22 49 L50 70 Z M50 55 L26 40 L50 61 Z M50 46 L34 33 L50 52 Z M50 38 L42 29 L50 44 Z"/>
  </svg>
</svg>
